<svg xmlns="http://www.w3.org/2000/svg" viewBox="0 0 24 24" fill="#111827">
  <path d="M12 .5A12 12 0 0 0 8.2 23.9c.6.1.8-.3.8-.6v-2.2c-3.3.7-4-1.4-4-1.4a3.1 3.1 0 0 0-1.3-1.7c-1.1-.8.1-.8.1-.8a2.4 2.4 0 0 1 1.8 1.2 2.4 2.4 0 0 0 3.2.9 2.3 2.3 0 0 1 .7-1.5c-2.7-.3-5.5-1.3-5.5-6a4.7 4.7 0 0 1 1.3-3.2 4.4 4.4 0 0 1 .1-3.2s1-.3 3.3 1.2a11.8 11.8 0 0 1 6 0c2.3-1.5 3.3-1.2 3.3-1.2a4.4 4.4 0 0 1 .1 3.2 4.6 4.6 0 0 1 1.3 3.2c0 4.7-2.9 5.7-5.6 6a2.7 2.7 0 0 1 .8 2.1v3.1c0 .4.2.7.8.6A12 12 0 0 0 12 .5Z" />
</svg>
